<svg width="982.48732" height="763.01413" xmlns="http://www.w3.org/2000/svg" data-name="Layer 1">

 <g>
  <title>Layer 1</title>
  <circle id="svg_1" fill="#e6e6e6" r="40.02979" cy="333.06116" cx="559.4329"/>
  <path id="svg_2" fill="#3f3d56" d="m657.53866,384.50172l-41.832,-41.832a44.307,44.307 0 0 0 -14.42627,-61.92578a44.45758,44.45758 0 0 0 -58.91358,12.23779a44.30652,44.30652 0 0 0 60.03321,62.99512l41.832,41.832a9.40939,9.40939 0 0 0 13.30664,-13.30713zm-56.70069,-43.39355a31.68421,31.68421 0 1 1 9.27978,-22.40381a31.58568,31.58568 0 0 1 -9.27978,22.40381z"/>
  <path id="svg_3" fill="#e6e6e6" d="m960.77266,446.20591c106.98014,118.30841 -203.13716,288.80823 -453.7195,288.80823s-423.94616,-132.10724 -453.7195,-288.80823c-72.19013,-379.9471 615.07735,-621.43938 453.7195,-288.80829c-235.19769,484.84827 369.47034,195.63785 453.7195,288.80829z"/>
  <path id="svg_4" fill="#3f3d56" d="m912.77266,474.20591c106.98014,118.30841 -203.13716,288.80823 -453.7195,288.80823s-423.94616,-132.10724 -453.7195,-288.80823c-72.19013,-379.9471 615.07735,-621.43938 453.7195,-288.80829c-235.19769,484.84827 369.47034,195.63785 453.7195,288.80829z"/>
  <path id="svg_5" fill="#4285f4" d="m149.59392,196.8253c-75.06741,-3.30525 -133.27133,-19.49788 -132.50668,-36.86436c0.45844,-10.41178 21.70324,-18.7842 58.28677,-22.96955a1,1 0 1 1 0.22727,1.987c-34.46168,3.943 -56.11733,12.01678 -56.516,21.07051c-0.69148,15.70451 59.11433,31.63093 130.59659,34.77832s132.4564,-7.461 133.14787,-23.16554c0.40032,-9.09178 -20.59681,-19.06558 -54.79775,-26.0284a1.00008,1.00008 0 1 1 0.3991,-1.95993c36.3011,7.39058 56.85694,17.624 56.39672,28.0763c-0.76462,17.3665 -60.16648,28.3809 -135.23389,25.07565z"/>
  <path id="svg_6" fill="#4285f4" d="m82.92293,199.73379a76.98277,76.98277 0 0 0 133.03578,5.52178a1211.97551,1211.97551 0 0 1 -133.03578,-5.52178z"/>
  <path id="svg_7" fill="#4285f4" d="m224.26266,184.22054a76.997,76.997 0 1 0 -147.74945,-5.70562a572.23325,572.23325 0 0 0 147.74945,5.70562z"/>
  <circle id="svg_8" fill="#fff" r="9" cy="123.60073" cx="168.83353"/>
  <circle id="svg_9" fill="#fff" r="15" cy="152.59128" cx="122.51347"/>
  <circle id="svg_10" fill="#4285f4" r="9.99975" cy="142.89813" cx="348.90479"/>
  <circle id="svg_11" fill="#e6e6e6" r="6.00007" cy="452.89813" cx="122.90479"/>
  <circle id="svg_12" fill="#e6e6e6" r="6.00007" cy="658.89813" cx="542.90479"/>
  <circle id="svg_13" fill="#e6e6e6" r="3.00007" cy="339.89813" cx="151.90479"/>
  <circle id="svg_14" fill="#e6e6e6" r="3.00007" cy="563.89813" cx="399.90479"/>
  <circle id="svg_15" fill="#e6e6e6" r="3.00007" cy="534.89813" cx="850.90479"/>
  <circle id="svg_16" fill="#e6e6e6" r="3.00007" cy="623.89813" cx="709.90479"/>
  <circle id="svg_17" fill="#e6e6e6" r="3.00007" cy="515.89813" cx="562.90479"/>
  <circle id="svg_18" fill="#e6e6e6" r="3.00007" cy="219.89813" cx="372.90479"/>
  <circle id="svg_19" fill="#e6e6e6" r="3.00007" cy="71.89813" cx="396.90479"/>
  <circle id="svg_20" fill="#e6e6e6" r="3.00007" cy="694.89813" cx="382.90479"/>
  <circle id="svg_21" fill="#e6e6e6" r="3.00007" cy="631.89813" cx="234.90479"/>
  <circle id="svg_22" fill="#e6e6e6" r="3.00007" cy="523.89813" cx="703.90479"/>
  <circle id="svg_23" fill="#fff" r="9" cy="224.7987" cx="148.3737"/>
  <path id="svg_27" fill="#ffb8b8" d="m816.85323,317.91952a10.52681,10.52681 0 0 0 -0.64106,1.52851l-47.783,13.27682l-8.61085,-8.42662l-14.41576,11.33313l13.7941,16.39909a8,8 0 0 0 9.35283,2.169l51.61632,-22.78484a10.49709,10.49709 0 1 0 -3.31256,-13.49509l-0.00002,0z"/>
  <path id="svg_28" fill="#4285f4" d="m766.74557,333.50307l-17.9352,13.95958a4.5,4.5 0 0 1 -6.68163,-1.33719l-11.14665,-19.72739a12.49741,12.49741 0 0 1 19.76923,-15.29426l16.33819,15.59379a4.5,4.5 0 0 1 -0.34394,6.80543l0,0.00004z"/>
  <path id="svg_29" fill="#3f3d56" d="m821.43524,311.31674l18.18807,8.1829a3.14913,3.14913 0 0 1 1.57976,4.16384l-2.15339,4.78633a1.05293,1.05293 0 0 1 0.52659,1.38795l-0.86136,1.91453a1.05292,1.05292 0 0 1 -1.388,0.52659l-0.86136,1.91453a1.05292,1.05292 0 0 1 0.52659,1.388l-0.86136,1.91453a1.0529,1.0529 0 0 1 -1.38794,0.52659l-11.62828,25.84616a3.14914,3.14914 0 0 1 -4.16384,1.57977l-18.18807,-8.1829a3.14915,3.14915 0 0 1 -1.57977,-4.16384l18.08852,-40.20522a3.14913,3.14913 0 0 1 4.16384,-1.57976z"/>
  <path id="svg_30" fill="#f2f2f2" d="m804.06503,354.71888l14.59056,6.57106a3.03424,3.03424 0 0 0 3.99937,-1.51155l6.73892,-14.98951l2.34078,-5.196l6.09875,-13.562a3.026,3.026 0 0 0 -1.51149,-3.98886l-4.58726,-2.06786l-10.01406,-4.50309a3.02112,3.02112 0 0 0 -3.98861,1.522l-5.89933,13.11069l-6.7179,14.92653l-2.56118,5.69979a3.022,3.022 0 0 0 1.51145,3.9888z"/>
  <polygon id="svg_31" fill="#ffb8b8" points="773.577 540.443 785.837 540.442 791.67 493.154 773.575 493.155 773.577 540.443"/>
  <path id="svg_32" fill="#2f2e41" d="m770.45026,536.44032l24.1438,-0.001l0.001,0a15.38605,15.38605 0 0 1 15.38648,15.38623l0,0.5l-39.53052,0.00146l-0.00076,-15.88669z"/>
  <polygon id="svg_33" fill="#ffb8b8" points="805.577 537.443 817.837 537.442 823.67 490.154 805.575 490.155 805.577 537.443"/>
  <path id="svg_34" fill="#2f2e41" d="m802.45026,533.44032l24.1438,-0.001l0.001,0a15.38605,15.38605 0 0 1 15.38648,15.38623l0,0.5l-39.53052,0.00146l-0.00076,-15.88669z"/>
  <path id="svg_35" fill="#2f2e41" d="m718.58504,429.47816a39.41035,39.41035 0 0 0 36.8999,26.81006l0.62012,0.01c6.32959,0.18 13.75976,-1.86 21.0498,-4.79c14.3999,-5.79 28.23,-15.06 31.8999,-17.61l-6.21972,59.79l-2.52,24.24a4.51415,4.51415 0 0 0 4.48,4.97l15.52978,0a4.50547,4.50547 0 0 0 4.35987,-3.36l25.64013,-97.65a19.032,19.032 0 0 0 -19.71,-23.83l-53.25976,3.65l3.71972,-14.88l-47.54,-3.16l-0.13965,0.1c-1.14013,0.83 -2.25,1.7 -3.31005,2.61a40.27149,40.27149 0 0 0 -6.99024,7.66a38.48741,38.48741 0 0 0 -4.5098,35.43994z"/>
  <path id="svg_36" fill="#2f2e41" d="m718.58504,429.47816a39.41035,39.41035 0 0 0 36.8999,26.81006a196.14623,196.14623 0 0 0 22.56982,-13.39l-0.8999,8.61l-7.83984,75.42a4.51415,4.51415 0 0 0 4.48,4.97l15.52978,0a4.50547,4.50547 0 0 0 4.35987,-3.36l9.15039,-34.85l16.48974,-62.8a19.032,19.032 0 0 0 -19.71,-23.83l-53.25976,3.65l3.71972,-14.88l-26.98,-1.79a38.48741,38.48741 0 0 0 -4.50972,35.43994z"/>
  <path id="svg_37" fill="#4285f4" d="m730.01716,389.82789l-0.35766,-0.043l-8.29517,-40.78515c-0.071,-0.354 -6.85229,-35.5332 13.93677,-53.92432l0.36182,-2.51709a4.50032,4.50032 0 0 1 5.78711,-3.65771l19.58471,6.0747a4.49086,4.49086 0 0 1 3.019,5.4419l-1.90381,7.2417c2.63989,3.1001 33.7146,40.51221 22.89038,69.33545l-4.84785,18.9517l-50.1753,-6.11818z"/>
  <path id="svg_38" fill="#ffb8b8" d="m811.33755,357.99693a10.52591,10.52591 0 0 0 -1.32908,0.99037l-47.89739,-12.858l-3.13136,-11.634l-18.17538,2.43095l3.54192,21.13437a8,8 0 0 0 6.95146,6.62248l56.032,6.619a10.4971,10.4971 0 1 0 4.00785,-13.30516l-0.00002,-0.00001z"/>
  <path id="svg_39" fill="#4285f4" d="m760.26566,345.94353l-22.54132,2.90354a4.5,4.5 0 0 1 -5.07405,-4.54822l0.42987,-22.65461a12.49741,12.49741 0 0 1 24.79917,-3.12052l6.14215,21.73423a4.5,4.5 0 0 1 -3.75583,5.68559l0.00001,-0.00001z"/>
  <circle id="svg_40" fill="#ffb8b8" r="24.56103" cy="258.80372" cx="753.92061"/>
  <path id="svg_41" fill="#2f2e41" d="m752.62846,260.85498l-3.075,-5.59966c-5.82461,23.73215 4.46383,43.37315 4.46383,43.37315l-39.93243,-18.601l0.38033,-6.59991l-3.95134,4.484l-5.67747,-3.12872l-0.74992,-4.28064l-4.28563,1.06158l15.64354,-28.38736c15.18238,-27.01314 37.25508,-16.69982 37.25508,-16.69982c35.11544,-1.66934 30.82681,32.97543 30.82681,32.97543l-30.8978,1.40295z"/>
  <ellipse id="svg_42" transform="rotate(-32.6624 -275.752 306.362)" fill="#3f3d56" ry="47.5" rx="12.17949" cy="778.75351" cx="280.40949"/>
  <circle stroke="null" id="svg_43" fill="#e6e6e6" r="3.00007" cy="423.89813" cx="312.90479"/>
 </g>
</svg>